<svg width="32" height="32" viewBox="0 0 100 100" fill="none" xmlns="http://www.w3.org/2000/svg">
  {/* Couleurs (vous pouvez les ajuster pour correspondre à votre thème vert) */}
  <defs>
    <linearGradient id="glandGradient" x1="50" y1="30" x2="50" y2="85" gradientUnits="userSpaceOnUse">
      <stop stop-color="#4CAF50" /> {/* Vert principal */}
      <stop offset="1" stop-color="#388E3C" /> {/* Vert plus foncé */}
    </linearGradient>
    <linearGradient id="cupuleGradient" x1="50" y1="20" x2="50" y2="45" gradientUnits="userSpaceOnUse">
      <stop stop-color="#A5D6A7" /> {/* Vert clair pour la cupule */}
      <stop offset="1" stop-color="#81C784" />
    </linearGradient>
    <linearGradient id="leafGradient" x1="75" y1="15" x2="60" y2="40" gradientUnits="userSpaceOnUse">
      <stop stop-color="#66BB6A" />
      <stop offset="1" stop-color="#4CAF50" />
    </linearGradient>
  </defs>

  {/* Feuille stylisée */}
  <path d="M75 15 C 70 25, 65 30, 60 40 C 68 35, 75 28, 75 15 Z" fill="url(#leafGradient)"
    transform="rotate(10 70 25)" />

  {/* Cupule du gland (partie supérieure) */}
  <path d="M30 45 C 30 30, 70 30, 70 45 Q 65 48, 50 48 Q 35 48, 30 45 Z" fill="url(#cupuleGradient)" />
  <rect x="33" y="38" width="34" height="4" rx="2" fill="#66BB6A" opacity="0.5" />
  <rect x="36" y="33" width="28" height="4" rx="2" fill="#66BB6A" opacity="0.5" />


  {/* Corps du gland (partie inférieure) */}
  <path d="M35 46 C 30 55, 30 75, 50 85 C 70 75, 70 55, 65 46 Z" fill="url(#glandGradient)" />

  {/* Petite tige sur le dessus */}
  <rect x="47" y="20" width="6" height="12" rx="3" fill="#A1887F" />
</svg>